<svg width="422" height="421" viewBox="0 0 422 421" fill="none" xmlns="http://www.w3.org/2000/svg">
<g clip-path="url(#clip0_1_3062)">
<path d="M102.233 112.803L101.187 107.044L94.8175 106.778C94.3382 105.487 93.7579 104.254 93.0835 103.088L96.9117 97.9849L93.134 93.5219L87.4845 96.485C86.4363 95.6223 85.3193 94.847 84.1449 94.1683L84.9179 87.8211L79.4221 85.8495L76.0114 91.242C74.6856 91.0212 73.33 90.913 71.9584 90.9176L69.4628 85.0328L63.7217 86.0819L63.4556 92.4705C62.1688 92.9513 60.9394 93.5334 59.7765 94.2097L54.689 90.3701L50.2392 94.1591L53.1935 99.8254C52.3334 100.877 51.5581 101.997 50.8837 103.175L44.5554 102.4L42.5897 107.912L47.9661 111.333C47.7459 112.662 47.6381 114.022 47.6427 115.398L41.7754 117.901L42.8213 123.659L49.191 123.926C49.6704 125.216 50.2507 126.45 50.925 127.616L47.0968 132.719L50.8746 137.182L56.524 134.219C57.5722 135.084 58.6892 135.857 59.8636 136.535L59.0906 142.882L64.5864 144.854L67.9971 139.461C69.3229 139.682 70.6785 139.79 72.0501 139.788L74.5457 145.673L80.2869 144.624L80.5529 138.235C81.8397 137.754 83.0691 137.172 84.2321 136.496L89.3195 140.336L93.7693 136.547L90.815 130.88C91.6774 129.829 92.4481 128.709 93.1248 127.531L99.4531 128.306L101.419 122.794L96.0424 119.373C96.2626 118.043 96.3704 116.684 96.3681 115.308L102.235 112.805L102.233 112.803ZM74.6971 130.176C66.5337 131.667 58.7099 126.24 57.2236 118.05C55.7372 109.863 61.1481 102.015 69.3137 100.522C77.4771 99.0317 85.3009 104.459 86.7895 112.649C88.2759 120.836 82.865 128.683 74.6994 130.176H74.6971Z" fill="#101010"/>
<path d="M201.964 63.8448L200.175 53.9893L189.275 53.5337C188.454 51.3252 187.463 49.2156 186.309 47.221L192.86 38.4905L186.396 30.8527L176.728 35.9254C174.937 34.4461 173.024 33.121 171.012 31.9592L172.336 21.096L162.932 17.7234L157.096 26.9509C154.828 26.5713 152.509 26.3873 150.16 26.3942L145.892 16.3247L136.065 18.1191L135.611 29.0513C133.412 29.8749 131.306 30.8688 129.317 32.0259L120.613 25.4556L112.998 31.9385L118.055 41.6353C116.58 43.432 115.259 45.3507 114.101 47.3683L103.27 46.0409L99.9073 55.4731L109.107 61.3257C108.729 63.6009 108.545 65.9268 108.552 68.2825L98.5127 72.5639L100.302 82.4194L111.202 82.8749C112.023 85.0834 113.014 87.193 114.167 89.1876L107.616 97.9182L114.08 105.556L123.748 100.483C125.54 101.963 127.452 103.288 129.464 104.449L128.141 115.313L137.545 118.685L143.38 109.458C145.649 109.837 147.967 110.021 150.316 110.014L154.585 120.084L164.411 118.29L164.865 107.357C167.067 106.534 169.171 105.54 171.162 104.383L179.866 110.953L187.481 104.47L182.424 94.7733C183.899 92.9766 185.22 91.058 186.378 89.0404L197.209 90.3678L200.572 80.9356L191.371 75.083C191.75 72.8077 191.933 70.4819 191.927 68.1261L201.966 63.8448H201.964ZM154.846 93.5748C140.875 96.1261 127.489 86.8388 124.943 72.8261C122.399 58.8135 131.659 45.3875 145.63 42.8339C159.601 40.2826 172.987 49.5699 175.533 63.5825C178.077 77.5952 168.817 91.0211 154.846 93.5748Z" fill="#101010"/>
<path d="M176.986 421C167.338 421 157.693 419.914 148.11 417.745C147.832 417.683 147.66 417.407 147.722 417.128C147.784 416.85 148.06 416.677 148.337 416.739C167.295 421.034 186.514 421.048 205.457 416.776C205.737 416.712 206.01 416.889 206.072 417.165C206.134 417.443 205.96 417.719 205.684 417.781C196.166 419.928 186.578 421 176.988 421H176.986Z" fill="#101010"/>
<path d="M175.203 410.558C137.222 410.558 100.77 395.358 100.332 395.174C100.07 395.064 99.9488 394.762 100.059 394.5C100.169 394.238 100.472 394.116 100.733 394.226C101.258 394.449 153.727 416.321 198.17 407.39C198.448 407.332 198.718 407.514 198.776 407.795C198.831 408.073 198.652 408.345 198.372 408.402C190.782 409.927 182.958 410.562 175.203 410.562V410.558Z" fill="#101010"/>
<path d="M50.4412 164.017C49.7233 164.017 49.0053 163.884 48.3149 163.615C46.8148 163.03 45.6313 161.88 44.9844 160.378C43.6655 157.309 45.0326 153.713 48.0351 152.363C49.4801 151.712 51.0857 151.67 52.5629 152.245C54.063 152.83 55.2465 153.98 55.8933 155.482C57.2122 158.551 55.8452 162.147 52.8427 163.497C52.0743 163.845 51.2577 164.017 50.4412 164.017ZM50.4366 152.874C49.7622 152.874 49.0902 153.016 48.4571 153.301C45.9661 154.424 44.8308 157.415 45.9294 159.968C46.4662 161.215 47.4456 162.17 48.6888 162.653C49.9067 163.127 51.2302 163.093 52.4207 162.557C54.9139 161.434 56.047 158.443 54.9483 155.89C54.4116 154.643 53.4322 153.69 52.189 153.205C51.6202 152.984 51.0284 152.874 50.4366 152.874Z" fill="#101010"/>
<path d="M208.228 14.4773C208.097 14.4773 207.964 14.4267 207.866 14.3255L205.629 12.0847C205.428 11.8846 205.428 11.5579 205.629 11.3554C205.831 11.153 206.155 11.153 206.357 11.3554L208.593 13.5962C208.795 13.7963 208.795 14.123 208.593 14.3255C208.492 14.4267 208.361 14.4773 208.23 14.4773H208.228Z" fill="#101010"/>
<path d="M216.054 22.3221C215.924 22.3221 215.791 22.2715 215.692 22.1703L213.456 19.9296C213.254 19.7294 213.254 19.4027 213.456 19.2003C213.657 18.9978 213.981 18.9978 214.183 19.2003L216.419 21.441C216.621 21.6412 216.621 21.9679 216.419 22.1703C216.318 22.2715 216.187 22.3221 216.057 22.3221H216.054Z" fill="#101010"/>
<path d="M205.992 22.3221C205.861 22.3221 205.728 22.2715 205.629 22.1703C205.428 21.9679 205.428 21.6412 205.629 21.441L207.866 19.2003C208.068 18.9978 208.391 18.9978 208.593 19.2003C208.795 19.4027 208.795 19.7294 208.593 19.9296L206.357 22.1703C206.256 22.2715 206.125 22.3221 205.994 22.3221H205.992Z" fill="#101010"/>
<path d="M213.818 14.4773C213.687 14.4773 213.554 14.4267 213.456 14.3255C213.254 14.123 213.254 13.7963 213.456 13.5962L215.692 11.3554C215.894 11.153 216.217 11.153 216.419 11.3554C216.621 11.5579 216.621 11.8846 216.419 12.0847L214.183 14.3255C214.082 14.4267 213.951 14.4773 213.82 14.4773H213.818Z" fill="#101010"/>
<path d="M402.497 325.134L108.071 324.579C104.993 324.579 102.554 321.791 102.752 318.497L116.074 95.5002C116.252 92.4888 118.581 90.1468 121.393 90.1468L416.234 89.6062C419.312 89.6062 422.188 92.9328 421.991 96.2272L408.669 319.224C408.49 322.235 405.309 325.134 402.497 325.134Z" fill="#101010"/>
<path d="M394.352 325.134H99.0725C95.9943 325.134 93.5561 322.346 93.7534 319.051L107.075 94.886C107.254 91.8746 109.582 89.5326 112.394 89.5326H407.674C410.752 89.5326 413.19 92.3209 412.993 95.6152L399.671 319.781C399.492 322.792 397.164 325.134 394.352 325.134Z" fill="white"/>
<path d="M246.863 325.649H199.705C199.42 325.649 199.191 325.419 199.191 325.134C199.191 324.849 199.42 324.619 199.705 324.619H246.863C247.148 324.619 247.377 324.849 247.377 325.134C247.377 325.419 247.148 325.649 246.863 325.649Z" fill="#101010"/>
<path d="M377.635 325.649H268.512C268.227 325.649 267.998 325.419 267.998 325.134C267.998 324.849 268.227 324.619 268.512 324.619H377.635C377.92 324.619 378.149 324.849 378.149 325.134C378.149 325.419 377.92 325.649 377.635 325.649Z" fill="#101010"/>
<path d="M400.659 313.592C400.659 313.592 400.639 313.592 400.63 313.592C400.345 313.576 400.13 313.332 400.146 313.049L412.481 95.5854C412.571 94.0785 412.05 92.6062 411.054 91.5433C410.148 90.5794 408.947 90.048 407.674 90.048L338.55 90.1584C338.266 90.1584 338.036 89.9284 338.036 89.6431C338.036 89.3578 338.266 89.1278 338.55 89.1278L407.676 89.0173C409.236 89.0173 410.704 89.6638 411.805 90.8371C412.995 92.1047 413.614 93.8554 413.509 95.6452L401.173 313.107C401.157 313.38 400.932 313.592 400.662 313.592H400.659Z" fill="#101010"/>
<path d="M100.866 199.874C100.866 199.874 100.846 199.874 100.834 199.874C100.552 199.858 100.334 199.614 100.352 199.329L106.561 94.8538C106.756 91.5801 109.319 89.015 112.394 89.015H278.654C278.939 89.015 279.168 89.2451 279.168 89.5303C279.168 89.8156 278.939 90.0457 278.654 90.0457H112.394C109.862 90.0457 107.75 92.1852 107.587 94.9159L101.378 199.391C101.362 199.664 101.135 199.876 100.866 199.876V199.874Z" fill="#101010"/>
<path d="M389.016 316.436H105.805C102.953 316.436 100.696 313.854 100.878 310.802L113.216 103.186C113.381 100.398 115.539 98.2264 118.142 98.2264H401.354C404.205 98.2264 406.462 100.808 406.281 103.858L393.943 311.473C393.778 314.262 391.62 316.433 389.016 316.433V316.436Z" fill="white"/>
<path d="M389.016 316.951H105.805C104.35 316.951 102.981 316.348 101.953 315.253C100.843 314.073 100.265 312.439 100.364 310.772L112.702 103.156C112.883 100.104 115.273 97.7134 118.142 97.7134H401.354C402.809 97.7134 404.178 98.3161 405.205 99.4112C406.316 100.591 406.894 102.225 406.795 103.893L394.457 311.508C394.276 314.561 391.886 316.951 389.016 316.951ZM118.142 98.744C115.817 98.744 113.876 100.709 113.727 103.219L101.389 310.834C101.307 312.219 101.786 313.571 102.701 314.547C103.534 315.432 104.635 315.92 105.805 315.92H389.016C391.342 315.92 393.283 313.956 393.432 311.446L405.77 103.831C405.852 102.446 405.373 101.093 404.458 100.117C403.625 99.2317 402.524 98.744 401.354 98.744H118.142Z" fill="#101010"/>
<path d="M343.688 139.951H404.136L404.719 130.206H344.273L346.188 98.2264H330.35L328.435 130.206H209.228L211.088 98.2264H201.12L199.587 124.586C199.376 128.198 198.03 131.651 195.741 134.446L166.028 170.735L170.301 98.2264H154.463L149.869 176.171H108.869L107.972 191.465H146.045C147.63 191.465 148.889 192.804 148.795 194.392L146.733 229.385C146.55 232.519 147.316 235.634 148.933 238.318L154.264 247.168H131.538C128.512 247.168 126.012 249.533 125.835 252.563L124.28 279.314H102.747L102.091 289.059H123.714L122.122 316.433H132.09L133.682 289.059H179.458L195.922 316.433H211.76L195.296 289.059H299.995L277.581 316.433H293.419L313.638 291.739C315.028 290.044 317.099 289.059 319.29 289.059H395.241L395.856 279.314H323.813L333.38 267.63C335.217 265.384 336.302 262.617 336.476 259.718L343.69 139.949L343.688 139.951ZM327.85 139.951L324.666 193.066H205.569L208.659 139.951H327.85ZM165.083 238.84C163.262 235.815 162.397 232.309 162.606 228.78L164.512 196.421C164.702 193.202 165.904 190.126 167.948 187.635L198.051 150.966L192.835 240.619C192.621 244.297 189.585 247.171 185.91 247.171H170.099L165.083 238.84ZM134.249 279.316L135.384 259.808C135.478 258.183 136.82 256.914 138.444 256.914H160.126L173.6 279.316H134.251H134.249ZM186.311 274.122L175.962 256.916H192.188C197.645 256.916 202.147 252.635 202.439 247.171H202.425L205.005 202.812H324.086L320.755 258.409C320.533 262.127 319.143 265.679 316.787 268.557L307.977 279.316H195.486C191.731 279.316 188.252 277.345 186.314 274.122H186.311Z" fill="white"/>
<path d="M293.417 316.951H277.578C277.379 316.951 277.2 316.836 277.113 316.656C277.028 316.477 277.053 316.263 277.182 316.109L298.905 289.577H196.204L212.198 316.169C212.295 316.327 212.297 316.528 212.205 316.689C212.114 316.85 211.944 316.951 211.758 316.951H195.92C195.739 316.951 195.574 316.857 195.48 316.702L179.164 289.577H134.162L132.597 316.465C132.581 316.737 132.356 316.951 132.084 316.951H122.115C121.973 316.951 121.838 316.893 121.741 316.79C121.645 316.686 121.594 316.548 121.601 316.406L123.161 289.577H102.082C101.94 289.577 101.804 289.517 101.706 289.413C101.609 289.31 101.559 289.169 101.568 289.027L102.224 279.282C102.242 279.01 102.467 278.801 102.738 278.801H123.787L125.315 252.536C125.507 249.239 128.237 246.655 131.531 246.655H153.344L148.486 238.587C146.807 235.799 146.02 232.608 146.213 229.358L148.275 194.364C148.312 193.738 148.096 193.145 147.669 192.689C147.24 192.234 146.662 191.983 146.036 191.983H107.963C107.821 191.983 107.685 191.925 107.589 191.822C107.493 191.718 107.442 191.58 107.449 191.438L108.346 176.144C108.362 175.872 108.587 175.658 108.86 175.658H149.376L153.94 98.1988C153.956 97.925 154.181 97.7134 154.454 97.7134H170.292C170.434 97.7134 170.57 97.7709 170.666 97.8744C170.762 97.9779 170.813 98.116 170.806 98.2586L166.627 169.184L195.337 134.122C197.571 131.391 198.863 128.085 199.067 124.558L200.599 98.1988C200.615 97.9273 200.84 97.7134 201.113 97.7134H211.081C211.224 97.7134 211.359 97.7709 211.455 97.8744C211.552 97.9779 211.602 98.116 211.595 98.2586L209.767 129.693H327.946L329.834 98.1988C329.85 97.9273 330.075 97.7134 330.348 97.7134H346.186C346.328 97.7134 346.463 97.7732 346.56 97.8744C346.656 97.9779 346.706 98.116 346.697 98.2586L344.814 129.693H404.715C404.857 129.693 404.992 129.751 405.088 129.854C405.185 129.958 405.235 130.096 405.228 130.239L404.646 139.984C404.63 140.255 404.405 140.469 404.132 140.469H344.167L336.981 259.752C336.8 262.78 335.687 265.619 333.77 267.961L324.893 278.801H395.849C395.992 278.801 396.127 278.861 396.223 278.964C396.32 279.068 396.37 279.208 396.361 279.351L395.746 289.096C395.73 289.367 395.505 289.579 395.232 289.579H319.281C317.237 289.579 315.324 290.488 314.028 292.07L293.807 316.765C293.71 316.884 293.563 316.953 293.41 316.953L293.417 316.951ZM278.666 315.92H293.173L313.239 291.412C314.73 289.59 316.934 288.544 319.287 288.544H394.755L395.306 279.832H323.808C323.609 279.832 323.428 279.717 323.343 279.537C323.258 279.358 323.283 279.144 323.411 278.99L332.979 267.305C334.758 265.131 335.788 262.497 335.958 259.688L343.174 139.919C343.19 139.648 343.415 139.436 343.688 139.436H403.653L404.173 130.722H344.273C344.131 130.722 343.995 130.662 343.899 130.561C343.803 130.457 343.752 130.319 343.759 130.176L345.642 98.7417H330.834L328.946 130.236C328.93 130.508 328.705 130.722 328.432 130.722H209.226C209.084 130.722 208.948 130.664 208.852 130.561C208.756 130.457 208.705 130.319 208.712 130.176L210.54 98.7417H201.601L200.097 124.616C199.879 128.361 198.51 131.874 196.136 134.773L166.423 171.062C166.283 171.234 166.044 171.296 165.838 171.214C165.631 171.133 165.498 170.926 165.512 170.703L169.753 98.7394H154.945L150.381 176.199C150.364 176.473 150.14 176.684 149.867 176.684H109.351L108.513 190.948H146.041C146.951 190.948 147.795 191.313 148.422 191.978C149.046 192.643 149.36 193.51 149.307 194.421L147.245 229.413C147.066 232.454 147.802 235.442 149.374 238.049L154.704 246.899C154.8 247.058 154.803 247.258 154.711 247.419C154.619 247.58 154.45 247.681 154.264 247.681H131.538C128.787 247.681 126.508 249.837 126.349 252.591L124.794 279.342C124.778 279.613 124.553 279.827 124.28 279.827H103.226L102.639 288.539H123.714C123.856 288.539 123.991 288.597 124.088 288.7C124.184 288.804 124.234 288.942 124.228 289.084L122.668 315.913H131.606L133.171 289.025C133.187 288.753 133.412 288.539 133.685 288.539H179.463C179.644 288.539 179.809 288.633 179.903 288.788L196.218 315.913H210.854L194.86 289.321C194.764 289.163 194.762 288.962 194.853 288.801C194.945 288.64 195.115 288.539 195.301 288.539H300C300.199 288.539 300.378 288.654 300.465 288.834C300.55 289.013 300.525 289.227 300.396 289.381L278.673 315.913L278.666 315.92ZM307.97 279.832H195.482C191.571 279.832 187.887 277.745 185.869 274.388L175.52 257.18C175.423 257.022 175.421 256.821 175.513 256.66C175.604 256.499 175.774 256.398 175.96 256.398H192.186C197.331 256.398 201.583 252.391 201.916 247.254C201.909 247.217 201.907 247.178 201.909 247.138L204.489 202.779C204.505 202.508 204.73 202.294 205.003 202.294H324.084C324.226 202.294 324.361 202.351 324.457 202.455C324.554 202.558 324.604 202.697 324.595 202.839L321.265 258.436C321.033 262.288 319.622 265.899 317.179 268.881L308.369 279.641C308.273 279.76 308.126 279.829 307.973 279.829L307.97 279.832ZM186.747 273.855C188.582 276.905 191.929 278.801 195.482 278.801H307.729L316.386 268.23C318.689 265.419 320.021 262.012 320.239 258.379L323.538 203.327H205.487L202.941 247.086C202.948 247.122 202.95 247.159 202.948 247.198C202.641 252.936 197.913 257.431 192.183 257.431H176.868L186.747 273.857V273.855ZM173.595 279.832H134.247C134.104 279.832 133.969 279.774 133.873 279.671C133.776 279.567 133.726 279.429 133.733 279.286L134.868 259.78C134.978 257.884 136.547 256.4 138.439 256.4H160.122C160.303 256.4 160.468 256.495 160.562 256.649L174.036 279.052C174.132 279.21 174.134 279.411 174.042 279.572C173.951 279.733 173.781 279.834 173.595 279.834V279.832ZM134.79 278.801H172.685L159.831 257.431H138.439C137.091 257.431 135.971 258.489 135.893 259.84L134.79 278.801ZM185.908 247.686H170.097C169.916 247.686 169.751 247.592 169.657 247.438L164.641 239.107C162.757 235.979 161.874 232.397 162.09 228.75L163.996 196.391C164.193 193.039 165.423 189.899 167.549 187.308L197.652 150.637C197.792 150.465 198.03 150.405 198.237 150.486C198.443 150.566 198.574 150.773 198.562 150.996L193.346 240.649C193.117 244.594 189.851 247.686 185.908 247.686ZM170.389 246.655H185.908C189.307 246.655 192.122 243.989 192.321 240.589L197.445 152.515L168.345 187.964C166.356 190.384 165.207 193.319 165.024 196.451L163.118 228.81C162.916 232.247 163.746 235.624 165.524 238.574L170.391 246.655H170.389ZM324.666 193.582H205.57C205.427 193.582 205.292 193.524 205.196 193.421C205.099 193.317 205.049 193.179 205.056 193.037L208.145 139.922C208.161 139.65 208.386 139.436 208.659 139.436H327.85C327.992 139.436 328.127 139.496 328.224 139.597C328.32 139.701 328.37 139.839 328.364 139.981L325.18 193.096C325.164 193.368 324.939 193.582 324.666 193.582ZM206.113 192.551H324.182L327.304 140.467H209.143L206.113 192.551Z" fill="#101010"/>
<path d="M190.484 284.695C188.41 284.695 186.431 284.051 184.757 282.834C184.527 282.666 184.477 282.344 184.642 282.114C184.809 281.884 185.128 281.831 185.36 281.999C186.855 283.087 188.626 283.664 190.482 283.664H190.851C191.135 283.664 191.365 283.894 191.365 284.18C191.365 284.465 191.135 284.695 190.851 284.695H190.482H190.484ZM197.021 284.683C196.737 284.683 196.507 284.453 196.507 284.168C196.507 283.883 196.737 283.653 197.021 283.653L203.189 283.643C203.473 283.643 203.703 283.874 203.703 284.159C203.703 284.444 203.473 284.674 203.189 284.674L197.021 284.683ZM209.354 284.663C209.07 284.663 208.841 284.433 208.841 284.147C208.841 283.862 209.07 283.632 209.354 283.632L215.522 283.623C215.807 283.623 216.036 283.853 216.036 284.138C216.036 284.423 215.807 284.653 215.522 284.653L209.354 284.663ZM221.688 284.644C221.403 284.644 221.174 284.414 221.174 284.129C221.174 283.844 221.403 283.614 221.688 283.614L227.855 283.604C228.14 283.604 228.369 283.834 228.369 284.12C228.369 284.405 228.14 284.635 227.855 284.635L221.688 284.644ZM234.021 284.624C233.737 284.624 233.507 284.393 233.507 284.108C233.507 283.823 233.737 283.593 234.021 283.593L240.189 283.584C240.473 283.584 240.703 283.814 240.703 284.099C240.703 284.384 240.473 284.614 240.189 284.614L234.021 284.624ZM246.354 284.603C246.07 284.603 245.84 284.373 245.84 284.087C245.84 283.802 246.07 283.572 246.354 283.572L252.522 283.563C252.806 283.563 253.036 283.793 253.036 284.078C253.036 284.364 252.806 284.594 252.522 284.594L246.354 284.603ZM258.688 284.582C258.403 284.582 258.174 284.352 258.174 284.067C258.174 283.782 258.403 283.551 258.688 283.551L264.855 283.542C265.14 283.542 265.369 283.772 265.369 284.058C265.369 284.343 265.14 284.573 264.855 284.573L258.688 284.582ZM271.021 284.561C270.736 284.561 270.507 284.331 270.507 284.046C270.507 283.761 270.736 283.531 271.021 283.531L277.189 283.522C277.473 283.522 277.702 283.752 277.702 284.037C277.702 284.322 277.473 284.552 277.189 284.552L271.021 284.561ZM283.354 284.541C283.07 284.541 282.84 284.311 282.84 284.025C282.84 283.74 283.07 283.51 283.354 283.51L289.522 283.501C289.806 283.501 290.036 283.731 290.036 284.016C290.036 284.301 289.806 284.532 289.522 284.532L283.354 284.541ZM295.687 284.52C295.403 284.52 295.174 284.29 295.174 284.005C295.174 283.719 295.403 283.489 295.687 283.487L301.855 283.478C302.14 283.478 302.369 283.708 302.369 283.993C302.369 284.278 302.14 284.508 301.855 284.508L295.687 284.518V284.52ZM308.018 284.456C307.757 284.456 307.535 284.258 307.507 283.991C307.479 283.708 307.684 283.455 307.968 283.427C309.911 283.232 311.743 282.367 313.131 280.991C313.333 280.791 313.659 280.793 313.858 280.996C314.058 281.198 314.056 281.525 313.854 281.725C312.299 283.266 310.246 284.235 308.071 284.456C308.053 284.456 308.037 284.458 308.018 284.458V284.456ZM181.314 278.078C181.139 278.078 180.967 277.989 180.871 277.825L177.722 272.507C177.577 272.263 177.657 271.945 177.901 271.8C178.144 271.653 178.46 271.736 178.605 271.98L181.754 277.299C181.899 277.542 181.818 277.86 181.575 278.005C181.493 278.053 181.403 278.078 181.314 278.078ZM317.393 277.085C317.281 277.085 317.168 277.048 317.072 276.972C316.849 276.795 316.815 276.47 316.992 276.247L320.847 271.418C321.024 271.198 321.347 271.158 321.57 271.338C321.79 271.515 321.827 271.839 321.65 272.063L317.794 276.891C317.693 277.018 317.544 277.085 317.393 277.085ZM175.015 267.443C174.839 267.443 174.669 267.353 174.572 267.19L171.423 261.871C171.279 261.627 171.359 261.31 171.602 261.165C171.845 261.02 172.162 261.1 172.306 261.344L175.456 266.663C175.6 266.907 175.52 267.224 175.277 267.369C175.194 267.418 175.105 267.443 175.015 267.443ZM324.967 267.328C324.873 267.328 324.779 267.303 324.694 267.25C324.453 267.098 324.38 266.78 324.531 266.539C325.6 264.827 326.465 262.987 327.093 261.066C327.182 260.797 327.471 260.647 327.742 260.737C328.01 260.827 328.157 261.117 328.07 261.388C327.414 263.385 326.515 265.301 325.403 267.084C325.304 267.241 325.136 267.326 324.967 267.326V267.328ZM168.717 256.805C168.542 256.805 168.37 256.716 168.274 256.552L165.125 251.233C164.98 250.99 165.06 250.672 165.304 250.527C165.547 250.38 165.863 250.463 166.008 250.707L169.157 256.025C169.301 256.269 169.221 256.587 168.978 256.732C168.896 256.78 168.806 256.805 168.717 256.805ZM328.788 255.692C328.774 255.692 328.763 255.692 328.749 255.692C328.467 255.671 328.254 255.423 328.274 255.14C328.288 254.958 328.299 254.774 328.311 254.592L328.605 248.977C328.621 248.694 328.839 248.468 329.146 248.489C329.43 248.505 329.646 248.746 329.632 249.032L329.339 254.65C329.327 254.841 329.316 255.029 329.302 255.218C329.281 255.489 329.056 255.694 328.79 255.694L328.788 255.692ZM162.418 246.168C162.241 246.168 162.072 246.078 161.975 245.915L158.826 240.596C158.682 240.352 158.762 240.034 159.005 239.889C159.248 239.742 159.565 239.825 159.709 240.069L162.858 245.388C163.003 245.632 162.923 245.949 162.68 246.094C162.597 246.142 162.508 246.168 162.418 246.168ZM329.444 243.338C329.444 243.338 329.426 243.338 329.417 243.338C329.132 243.322 328.917 243.08 328.93 242.795L329.254 236.618C329.267 236.335 329.495 236.114 329.795 236.13C330.079 236.146 330.295 236.388 330.281 236.673L329.958 242.85C329.944 243.124 329.717 243.338 329.444 243.338ZM156.34 235.417C156.136 235.417 155.943 235.295 155.863 235.095C155.074 233.13 154.58 231.064 154.395 228.955C154.369 228.672 154.578 228.421 154.86 228.396C155.147 228.366 155.392 228.58 155.418 228.863C155.594 230.871 156.064 232.838 156.815 234.709C156.92 234.973 156.794 235.272 156.53 235.378C156.468 235.403 156.402 235.415 156.337 235.415L156.34 235.417ZM330.093 230.984C330.093 230.984 330.075 230.984 330.066 230.984C329.781 230.968 329.566 230.726 329.579 230.441L329.903 224.264C329.919 223.981 330.151 223.765 330.444 223.776C330.729 223.792 330.944 224.034 330.93 224.319L330.607 230.496C330.593 230.77 330.366 230.984 330.093 230.984ZM155.032 223.245C155.032 223.245 155.014 223.245 155.005 223.245C154.723 223.229 154.505 222.987 154.521 222.702L154.856 216.527C154.872 216.244 155.119 216.024 155.397 216.042C155.679 216.058 155.897 216.3 155.883 216.585L155.548 222.76C155.532 223.033 155.308 223.247 155.035 223.247L155.032 223.245ZM330.742 218.63C330.742 218.63 330.724 218.63 330.715 218.63C330.43 218.614 330.215 218.372 330.229 218.087L330.552 211.91C330.568 211.625 330.788 211.399 331.093 211.422C331.378 211.439 331.593 211.68 331.58 211.965L331.256 218.142C331.242 218.416 331.015 218.63 330.742 218.63ZM155.702 210.893C155.702 210.893 155.684 210.893 155.675 210.893C155.392 210.877 155.175 210.636 155.191 210.35L155.525 204.173C155.541 203.89 155.782 203.67 156.067 203.686C156.349 203.702 156.567 203.943 156.553 204.229L156.218 210.406C156.204 210.679 155.977 210.893 155.707 210.893H155.702ZM331.389 206.278C331.389 206.278 331.371 206.278 331.362 206.278C331.077 206.262 330.862 206.021 330.875 205.735L331.199 199.559C331.215 199.276 331.444 199.052 331.74 199.071C332.025 199.087 332.24 199.328 332.226 199.614L331.903 205.791C331.889 206.064 331.662 206.278 331.389 206.278ZM156.372 198.542C156.372 198.542 156.353 198.542 156.344 198.542C156.062 198.526 155.844 198.284 155.86 197.999L156.195 191.824C156.211 191.541 156.459 191.306 156.737 191.339C157.019 191.355 157.237 191.596 157.22 191.882L156.886 198.056C156.872 198.33 156.645 198.544 156.374 198.544L156.372 198.542ZM332.036 193.924C332.036 193.924 332.018 193.924 332.008 193.924C331.724 193.908 331.508 193.667 331.522 193.382L331.846 187.205C331.862 186.922 332.096 186.701 332.387 186.717C332.671 186.733 332.887 186.975 332.873 187.26L332.55 193.437C332.536 193.711 332.309 193.924 332.036 193.924ZM156.113 186.323C155.936 186.323 155.766 186.234 155.67 186.07C154.775 184.554 153.131 183.613 151.378 183.613H150.915C150.631 183.613 150.401 183.383 150.401 183.098C150.401 182.813 150.631 182.583 150.915 182.583H151.378C153.493 182.583 155.475 183.717 156.553 185.544C156.698 185.79 156.617 186.105 156.372 186.25C156.289 186.298 156.2 186.321 156.11 186.321L156.113 186.323ZM144.75 183.613H138.582C138.297 183.613 138.068 183.383 138.068 183.098C138.068 182.813 138.297 182.583 138.582 182.583H144.75C145.034 182.583 145.263 182.813 145.263 183.098C145.263 183.383 145.034 183.613 144.75 183.613ZM132.416 183.613H126.248C125.964 183.613 125.735 183.383 125.735 183.098C125.735 182.813 125.964 182.583 126.248 182.583H132.416C132.701 182.583 132.93 182.813 132.93 183.098C132.93 183.383 132.701 183.613 132.416 183.613ZM120.083 183.613H113.915C113.631 183.613 113.401 183.383 113.401 183.098C113.401 182.813 113.631 182.583 113.915 182.583H120.083C120.367 182.583 120.597 182.813 120.597 183.098C120.597 183.383 120.367 183.613 120.083 183.613ZM332.687 181.571C332.687 181.571 332.669 181.571 332.66 181.571C332.375 181.554 332.16 181.313 332.174 181.028L332.497 174.851C332.511 174.568 332.738 174.351 333.038 174.363C333.323 174.379 333.538 174.621 333.525 174.906L333.201 181.083C333.187 181.357 332.96 181.571 332.687 181.571ZM333.337 169.217C333.337 169.217 333.318 169.217 333.309 169.217C333.025 169.201 332.809 168.959 332.823 168.674L333.146 162.497C333.162 162.211 333.394 161.986 333.687 162.009C333.972 162.025 334.187 162.267 334.174 162.552L333.85 168.729C333.837 169.003 333.609 169.217 333.337 169.217ZM333.986 156.863C333.986 156.863 333.967 156.863 333.958 156.863C333.674 156.847 333.458 156.605 333.472 156.32L333.795 150.143C333.809 149.86 334.034 149.637 334.337 149.655C334.621 149.671 334.837 149.913 334.823 150.198L334.499 156.375C334.486 156.649 334.259 156.863 333.986 156.863ZM334.632 144.509C334.632 144.509 334.614 144.509 334.605 144.509C334.321 144.493 334.105 144.251 334.119 143.966L334.442 137.789C334.458 137.506 334.687 137.287 334.983 137.301C335.268 137.317 335.483 137.559 335.47 137.844L335.146 144.021C335.132 144.295 334.905 144.509 334.632 144.509ZM335.282 132.155C335.282 132.155 335.263 132.155 335.254 132.155C334.97 132.139 334.754 131.897 334.768 131.612L334.814 130.742C334.818 130.648 334.821 130.556 334.821 130.462C334.821 128.918 334.142 127.459 332.958 126.463C332.74 126.282 332.713 125.955 332.894 125.736C333.075 125.518 333.401 125.49 333.619 125.672C335.036 126.864 335.848 128.61 335.848 130.459C335.848 130.57 335.846 130.682 335.839 130.795L335.793 131.665C335.779 131.939 335.552 132.153 335.279 132.153L335.282 132.155ZM327.439 125.216H327.432L321.267 125.134C320.983 125.129 320.755 124.897 320.76 124.611C320.765 124.328 320.994 124.103 321.274 124.103H321.281L327.446 124.186C327.731 124.19 327.958 124.423 327.953 124.708C327.949 124.991 327.719 125.216 327.439 125.216ZM315.106 125.051H315.099L309.968 124.982C309.684 124.977 309.457 124.745 309.461 124.459C309.466 124.177 309.695 123.951 309.975 123.951H309.982L315.113 124.02C315.397 124.025 315.624 124.257 315.62 124.542C315.615 124.825 315.386 125.051 315.106 125.051Z" fill="#101010"/>
<path d="M310.688 0C290.3 0 273.771 16.5294 273.771 36.9215C273.771 42.0195 276.078 49.1466 279.54 56.973C288.263 76.7002 304.316 100.856 309.225 108.075C309.929 109.108 311.448 109.113 312.152 108.077C319.005 98.001 347.608 54.868 347.608 36.9215C347.608 16.5294 331.079 0 310.691 0L310.688 0Z" fill="#101010"/>
<path d="M310.686 63.2949C325.258 63.2949 337.071 51.4469 337.071 36.8317C337.071 22.2165 325.258 10.3685 310.686 10.3685C296.114 10.3685 284.302 22.2165 284.302 36.8317C284.302 51.4469 296.114 63.2949 310.686 63.2949Z" fill="white"/>
<path d="M310.686 129.033C314.935 129.033 318.379 125.578 318.379 121.317C318.379 117.056 314.935 113.601 310.686 113.601C306.437 113.601 302.993 117.056 302.993 121.317C302.993 125.578 306.437 129.033 310.686 129.033Z" fill="#101010"/>
<path d="M324.57 28.4762H297.719V50.5775H324.57V28.4762Z" fill="white"/>
<path d="M324.57 51.0928H297.72C297.435 51.0928 297.206 50.8628 297.206 50.5775V28.4761C297.206 28.1909 297.435 27.9608 297.72 27.9608H324.57C324.854 27.9608 325.084 28.1909 325.084 28.4761V50.5775C325.084 50.8628 324.854 51.0928 324.57 51.0928ZM298.233 50.0622H324.056V28.9915H298.233V50.0622Z" fill="#101010"/>
<path d="M318.115 38.3317H312.31V50.5775H318.115V38.3317Z" fill="white"/>
<path d="M318.115 51.0929H312.308C312.023 51.0929 311.794 50.8628 311.794 50.5775V38.3317C311.794 38.0465 312.023 37.8164 312.308 37.8164H318.115C318.4 37.8164 318.629 38.0465 318.629 38.3317V50.5775C318.629 50.8628 318.4 51.0929 318.115 51.0929ZM312.824 50.0622H317.602V38.8493H312.824V50.0622Z" fill="#101010"/>
<path d="M306.819 36.8525H300.864V42.8248H306.819V36.8525Z" fill="white"/>
<path d="M306.821 43.34H300.867C300.582 43.34 300.353 43.11 300.353 42.8247V36.8525C300.353 36.5672 300.582 36.3372 300.867 36.3372H306.821C307.105 36.3372 307.335 36.5672 307.335 36.8525V42.8247C307.335 43.11 307.105 43.34 306.821 43.34ZM301.38 42.3094H306.307V37.3678H301.38V42.3094Z" fill="#101010"/>
<path d="M326.097 24.0684H295.563V29.2193H326.097V24.0684Z" fill="white"/>
<path d="M326.098 29.7369H295.564C295.279 29.7369 295.05 29.5068 295.05 29.2215V24.0706C295.05 23.7854 295.279 23.5553 295.564 23.5553H326.098C326.382 23.5553 326.611 23.7854 326.611 24.0706V29.2215C326.611 29.5068 326.382 29.7369 326.098 29.7369ZM296.077 28.7062H325.584V24.5859H296.077V28.7062Z" fill="#101010"/>
<path d="M221.773 337.699H211.951C207.937 337.699 204.684 347.364 204.684 359.166C204.684 370.968 207.937 380.637 211.951 380.637H221.773C225.787 380.637 229.039 370.97 229.039 359.168C229.039 347.366 225.787 337.699 221.773 337.699Z" fill="#101010"/>
<path d="M211.951 380.289C215.964 380.289 219.217 370.722 219.217 358.92C219.217 347.118 215.964 337.55 211.951 337.55C207.938 337.55 204.684 347.118 204.684 358.92C204.684 370.722 207.938 380.289 211.951 380.289Z" fill="white"/>
<path d="M211.951 380.805C207.588 380.805 204.171 371.193 204.171 358.92C204.171 346.646 207.588 337.035 211.951 337.035C216.314 337.035 219.731 346.646 219.731 358.92C219.731 371.193 216.314 380.805 211.951 380.805ZM211.951 338.068C208.689 338.068 205.198 346.446 205.198 358.922C205.198 371.398 208.689 379.777 211.951 379.777C215.213 379.777 218.704 371.398 218.704 358.922C218.704 346.446 215.213 338.068 211.951 338.068Z" fill="#101010"/>
<path d="M191.901 339.28H182.08C178.066 339.28 174.813 348.944 174.813 360.746C174.813 372.548 178.066 382.217 182.08 382.217H191.901C195.915 382.217 199.168 372.55 199.168 360.749C199.168 348.947 195.915 339.28 191.901 339.28Z" fill="#101010"/>
<path d="M182.077 381.87C186.09 381.87 189.344 372.302 189.344 360.5C189.344 348.698 186.09 339.13 182.077 339.13C178.064 339.13 174.811 348.698 174.811 360.5C174.811 372.302 178.064 381.87 182.077 381.87Z" fill="white"/>
<path d="M182.077 382.383C177.715 382.383 174.297 372.771 174.297 360.498C174.297 348.224 177.715 338.613 182.077 338.613C186.44 338.613 189.858 348.224 189.858 360.498C189.858 372.771 186.44 382.383 182.077 382.383ZM182.077 339.646C178.816 339.646 175.325 348.024 175.325 360.5C175.325 372.976 178.816 381.355 182.077 381.355C185.339 381.355 188.83 372.976 188.83 360.5C188.83 348.024 185.339 339.646 182.077 339.646Z" fill="#101010"/>
<path d="M111.782 339.713H103.364C99.9234 339.713 97.1343 347.942 97.1343 358.057C97.1343 368.173 99.9234 376.406 103.364 376.406H111.782C115.223 376.406 118.009 368.175 118.009 358.059C118.009 347.944 115.22 339.713 111.782 339.713Z" fill="#101010"/>
<path d="M219.357 370.073L219.114 239.114L8.67041 265.84V359.532L219.357 370.073Z" fill="white"/>
<path d="M219.357 370.588C219.357 370.588 219.341 370.588 219.332 370.588L8.64286 360.047C8.36991 360.033 8.1543 359.808 8.1543 359.532V265.84C8.1543 265.58 8.34697 265.361 8.60386 265.329L219.05 238.601C219.197 238.583 219.344 238.629 219.454 238.725C219.564 238.822 219.628 238.962 219.628 239.112L219.871 370.073C219.871 370.213 219.814 370.349 219.713 370.448C219.616 370.54 219.49 370.59 219.357 370.59V370.588ZM9.18418 359.042L218.844 369.532L218.603 239.699L9.18418 266.295V359.044V359.042Z" fill="#101010"/>
<path d="M247.843 336.512H149.569V209.412L247.843 214.045V336.512Z" fill="white"/>
<path d="M247.843 337.028C247.559 337.028 247.329 336.798 247.329 336.512V214.535L149.546 209.925C149.261 209.911 149.043 209.669 149.057 209.386C149.071 209.101 149.316 208.88 149.594 208.896L247.868 213.53C248.141 213.544 248.359 213.769 248.359 214.045V336.515C248.359 336.8 248.13 337.03 247.845 337.03L247.843 337.028Z" fill="#101010"/>
<path d="M149.569 336.512V209.412L0.513916 218.699V335.105L149.569 336.512Z" fill="white"/>
<path d="M140.555 218.46V271.75L93.3269 272.976V221.207L140.555 218.46Z" fill="white"/>
<path d="M93.3268 273.491C93.1937 273.491 93.0653 273.439 92.969 273.344C92.8703 273.248 92.813 273.114 92.813 272.976V221.207C92.813 220.933 93.0263 220.708 93.297 220.692L140.525 217.945C140.664 217.938 140.804 217.986 140.908 218.085C141.011 218.182 141.068 218.317 141.068 218.46V271.752C141.068 272.031 140.846 272.261 140.568 272.268L93.3405 273.491H93.3268ZM93.8406 221.695V272.447L140.038 271.248V219.005L93.8406 221.692V221.695Z" fill="#101010"/>
<path d="M149.571 218.46H140.554V271.752H149.571V218.46Z" fill="white"/>
<path d="M149.569 272.265H140.552C140.268 272.265 140.038 272.035 140.038 271.75V218.458C140.038 218.172 140.268 217.942 140.552 217.942H149.569C149.853 217.942 150.083 218.172 150.083 218.458V271.75C150.083 272.035 149.853 272.265 149.569 272.265ZM141.066 271.234H149.053V218.973H141.066V271.234Z" fill="#101010"/>
<path d="M112.635 220.857L112.699 227.358L119.886 227.101L120.014 220.406L112.635 220.857Z" fill="#101010"/>
<path d="M104.252 263.15C104.119 263.15 103.993 263.1 103.896 263.008C103.795 262.911 103.738 262.775 103.738 262.635V237.86C103.738 237.584 103.956 237.357 104.231 237.345L129.102 236.314C129.24 236.303 129.377 236.36 129.478 236.457C129.579 236.554 129.636 236.689 129.636 236.83V261.604C129.636 261.88 129.418 262.108 129.143 262.12L104.272 263.148C104.272 263.148 104.259 263.148 104.252 263.148V263.15ZM104.766 238.355V262.097L128.609 261.11V237.368L104.766 238.355Z" fill="#101010"/>
<path d="M124.668 249.775C125.072 249.759 125.384 249.391 125.336 248.995C124.907 245.512 121.2 242.929 116.691 243.117C112.181 243.304 108.472 246.193 108.046 249.713C107.998 250.115 108.307 250.456 108.713 250.438L124.671 249.777L124.668 249.775Z" fill="#101010"/>
<path d="M115.092 259.207C114.571 259.207 114.085 259.014 113.714 258.655C113.326 258.28 113.11 257.774 113.11 257.226V256.03C113.11 255.745 113.34 255.515 113.624 255.515C113.909 255.515 114.138 255.745 114.138 256.03V257.226C114.138 257.491 114.239 257.733 114.425 257.912C114.613 258.094 114.86 258.179 115.136 258.177C115.709 258.154 116.175 257.67 116.175 257.102V240.842C116.175 240.557 116.404 240.327 116.689 240.327C116.973 240.327 117.202 240.557 117.202 240.842V257.102C117.202 258.216 116.294 259.161 115.177 259.207C115.149 259.207 115.12 259.207 115.09 259.207H115.092Z" fill="#101010"/>
<path d="M140.555 276.539V329.832H93.3269V277.45L140.555 276.539Z" fill="white"/>
<path d="M140.554 330.347H93.3268C93.0424 330.347 92.813 330.117 92.813 329.832V277.45C92.813 277.17 93.0378 276.94 93.3176 276.935L140.545 276.024C140.674 276.017 140.816 276.075 140.914 276.171C141.013 276.268 141.068 276.401 141.068 276.539V329.832C141.068 330.117 140.839 330.347 140.554 330.347ZM93.8406 329.316H140.038V277.066L93.8406 277.959V329.319V329.316Z" fill="#101010"/>
<path d="M149.571 276.54H140.554V329.832H149.571V276.54Z" fill="white"/>
<path d="M149.569 330.347H140.552C140.268 330.347 140.038 330.117 140.038 329.832V276.54C140.038 276.254 140.268 276.024 140.552 276.024H149.569C149.853 276.024 150.083 276.254 150.083 276.54V329.832C150.083 330.117 149.853 330.347 149.569 330.347ZM141.066 329.316H149.053V277.055H141.066V329.316Z" fill="#101010"/>
<path d="M111.296 277.68V284.117L118.413 284.246L118.576 277.552L111.296 277.68Z" fill="#101010"/>
<path d="M129.235 321.895H104.779C104.495 321.895 104.266 321.665 104.266 321.379V296.851C104.266 296.566 104.495 296.336 104.779 296.336H129.235C129.519 296.336 129.749 296.566 129.749 296.851V321.379C129.749 321.665 129.519 321.895 129.235 321.895ZM105.293 320.864H128.721V297.366H105.293V320.864Z" fill="#101010"/>
<path d="M125.696 315.016H108.316V317.963H125.696V315.016Z" fill="#101010"/>
<path d="M113.798 301.698H110.86V311.805H113.798V301.698Z" fill="#101010"/>
<path d="M108.438 303.651L112.33 299.747L116.221 303.651H108.438Z" fill="#101010"/>
<path d="M123.155 301.698H120.216V311.805H123.155V301.698Z" fill="#101010"/>
<path d="M117.792 303.651L121.684 299.747L125.577 303.651H117.792Z" fill="#101010"/>
<path d="M93.0515 278.861H84.0349V329.832H93.0515V278.861Z" fill="white"/>
<path d="M93.0492 330.347H84.0326C83.7482 330.347 83.5188 330.117 83.5188 329.832V278.861C83.5188 278.575 83.7482 278.345 84.0326 278.345H93.0492C93.3336 278.345 93.563 278.575 93.563 278.861V329.832C93.563 330.117 93.3336 330.347 93.0492 330.347ZM84.5464 329.316H92.5331V279.376H84.5464V329.316Z" fill="#101010"/>
<path d="M83.9525 278.861V329.832H38.2388V280.335L83.9525 278.861Z" fill="white"/>
<path d="M83.9524 330.347H38.2386C37.9542 330.347 37.7249 330.117 37.7249 329.832V280.335C37.7249 280.057 37.945 279.829 38.2226 279.82L83.9363 278.345C84.074 278.329 84.2093 278.394 84.3102 278.49C84.4111 278.587 84.4662 278.72 84.4662 278.861V329.832C84.4662 330.117 84.2368 330.347 83.9524 330.347ZM38.7524 329.316H83.4386V279.392L38.7524 280.835V329.316Z" fill="#101010"/>
<path d="M56.3086 280.255V286.692L63.4581 286.821L63.6049 280.126L56.3086 280.255Z" fill="#101010"/>
<path d="M73.688 321.324H48.9869C48.7025 321.324 48.4731 321.094 48.4731 320.809V296.034C48.4731 295.749 48.7025 295.519 48.9869 295.519H73.688C73.9724 295.519 74.2017 295.749 74.2017 296.034V320.809C74.2017 321.094 73.9724 321.324 73.688 321.324ZM49.5007 320.293H73.1742V296.55H49.5007V320.293Z" fill="#101010"/>
<path d="M69.2633 308.795C69.6647 308.795 69.9744 308.441 69.9262 308.043C69.5018 304.542 65.8181 301.806 61.3408 301.806C56.8635 301.806 53.1798 304.542 52.7554 308.043C52.7073 308.443 53.0169 308.795 53.4183 308.795H69.2679H69.2633Z" fill="#101010"/>
<path d="M59.8154 317.832C58.6938 317.832 57.7786 316.916 57.7786 315.789V314.593C57.7786 314.307 58.0079 314.077 58.2924 314.077C58.5768 314.077 58.8062 314.307 58.8062 314.593V315.789C58.8062 316.346 59.258 316.801 59.8154 316.801C60.3728 316.801 60.8223 316.348 60.8223 315.789V299.529C60.8223 299.243 61.0517 299.013 61.3361 299.013C61.6205 299.013 61.8499 299.243 61.8499 299.529V315.789C61.8499 316.914 60.937 317.832 59.8154 317.832Z" fill="#101010"/>
<path d="M93.0515 221.984H84.0349V272.955H93.0515V221.984Z" fill="white"/>
<path d="M93.0492 273.471H84.0326C83.7482 273.471 83.5188 273.24 83.5188 272.955V221.984C83.5188 221.699 83.7482 221.469 84.0326 221.469H93.0492C93.3336 221.469 93.563 221.699 93.563 221.984V272.955C93.563 273.24 93.3336 273.471 93.0492 273.471ZM84.5464 272.44H92.5331V222.5H84.5464V272.44Z" fill="#101010"/>
<path d="M83.9525 221.984V272.955L38.2388 274.179V223.459L83.9525 221.984Z" fill="white"/>
<path d="M38.2386 274.694C38.1056 274.694 37.9772 274.641 37.8808 274.549C37.7822 274.453 37.7249 274.319 37.7249 274.179V223.459C37.7249 223.181 37.945 222.953 38.2226 222.944L83.9363 221.469C84.074 221.455 84.2093 221.517 84.3102 221.614C84.4111 221.711 84.4662 221.844 84.4662 221.984V272.955C84.4662 273.234 84.2437 273.464 83.9662 273.471L38.2524 274.694H38.2386ZM38.7524 223.958V273.65L83.4386 272.454V222.518L38.7524 223.96V223.958Z" fill="#101010"/>
<path d="M57.8499 223.625V230.059L64.9994 230.188L65.1462 223.367L57.8499 223.625Z" fill="#101010"/>
<path d="M49.0856 262.69C48.9525 262.69 48.8241 262.637 48.7278 262.545C48.6268 262.449 48.5718 262.315 48.5718 262.175V237.646C48.5718 237.368 48.792 237.14 49.0695 237.131L74.2958 236.358C74.4311 236.353 74.5687 236.406 74.6697 236.503C74.7706 236.6 74.8256 236.733 74.8256 236.873V261.402C74.8256 261.68 74.6054 261.908 74.3279 261.917L49.1016 262.69H49.0856ZM49.5994 238.146V261.643L73.7981 260.903V237.405L49.5994 238.146Z" fill="#101010"/>
<path d="M70.6602 258.096L52.7349 258.646V255.699L70.6602 255.151V258.096Z" fill="#101010"/>
<path d="M55.3589 252.409V242.303L58.3889 242.208V252.317L55.3589 252.409Z" fill="#101010"/>
<path d="M52.8586 244.329L56.8749 240.303L60.8889 244.086L52.8586 244.329Z" fill="#101010"/>
<path d="M65.0085 252.115V242.006L68.0385 241.914V252.02L65.0085 252.115Z" fill="#101010"/>
<path d="M62.5083 244.035L66.5223 240.009L70.5386 243.789L62.5083 244.035Z" fill="#101010"/>
<path d="M133.042 342.814H123.583C119.718 342.814 116.585 352.119 116.585 363.484C116.585 374.849 119.718 384.159 123.583 384.159H133.042C136.907 384.159 140.04 374.851 140.04 363.486C140.04 352.122 136.907 342.814 133.042 342.814Z" fill="#101010"/>
<path d="M123.586 383.821C127.45 383.821 130.584 374.609 130.584 363.245C130.584 351.881 127.45 342.669 123.586 342.669C119.721 342.669 116.587 351.881 116.587 363.245C116.587 374.609 119.721 383.821 123.586 383.821Z" fill="white"/>
<path d="M123.585 384.338C119.374 384.338 116.073 375.074 116.073 363.247C116.073 351.42 119.372 342.156 123.585 342.156C127.799 342.156 131.097 351.42 131.097 363.247C131.097 375.074 127.799 384.338 123.585 384.338ZM123.585 343.186C120.454 343.186 117.103 351.247 117.103 363.247C117.103 375.247 120.454 383.308 123.585 383.308C126.716 383.308 130.07 375.247 130.07 363.247C130.07 351.247 126.716 343.186 123.585 343.186Z" fill="#101010"/>
<path d="M162.503 343.448H152.681C148.667 343.448 145.415 353.113 145.415 364.915C145.415 376.717 148.667 386.386 152.681 386.386H162.503C166.517 386.386 169.769 376.719 169.769 364.917C169.769 353.115 166.517 343.448 162.503 343.448Z" fill="#101010"/>
<path d="M152.681 386.036C156.694 386.036 159.948 376.469 159.948 364.667C159.948 352.864 156.694 343.297 152.681 343.297C148.668 343.297 145.415 352.864 145.415 364.667C145.415 376.469 148.668 386.036 152.681 386.036Z" fill="white"/>
<path d="M152.681 386.552C148.319 386.552 144.901 376.94 144.901 364.666C144.901 352.393 148.319 342.781 152.681 342.781C157.044 342.781 160.461 352.393 160.461 364.666C160.461 376.94 157.044 386.552 152.681 386.552ZM152.681 343.814C149.42 343.814 145.928 352.193 145.928 364.669C145.928 377.145 149.42 385.523 152.681 385.523C155.943 385.523 159.434 377.145 159.434 364.669C159.434 352.193 155.943 343.814 152.681 343.814Z" fill="#101010"/>
<path d="M29.7196 340.228H21.6113C18.2992 340.228 15.6133 347.925 15.6133 357.539C15.6133 367.153 18.2992 374.856 21.6113 374.856H29.7196C33.0318 374.856 35.7177 367.156 35.7177 357.542C35.7177 347.928 33.0318 340.228 29.7196 340.228Z" fill="#101010"/>
<path d="M21.6135 374.655C24.9262 374.655 27.6116 366.862 27.6116 357.247C27.6116 347.633 24.9262 339.839 21.6135 339.839C18.3009 339.839 15.6155 347.633 15.6155 357.247C15.6155 366.862 18.3009 374.655 21.6135 374.655Z" fill="white"/>
<path d="M21.6137 375.171C17.9621 375.171 15.1018 367.298 15.1018 357.247C15.1018 347.196 17.9621 339.324 21.6137 339.324C25.2653 339.324 28.1255 347.196 28.1255 357.247C28.1255 367.298 25.2653 375.171 21.6137 375.171ZM21.6137 340.354C18.9644 340.354 16.1294 347.143 16.1294 357.247C16.1294 367.351 18.9644 374.14 21.6137 374.14C24.2629 374.14 27.0979 367.351 27.0979 357.247C27.0979 347.143 24.2629 340.354 21.6137 340.354Z" fill="#101010"/>
<path d="M45.0783 341.263H36.97C33.6579 341.263 30.9719 348.961 30.9719 358.575C30.9719 368.189 33.6579 375.891 36.97 375.891H45.0783C48.3904 375.891 51.0763 368.191 51.0763 358.577C51.0763 348.963 48.3904 341.263 45.0783 341.263Z" fill="#101010"/>
<path d="M36.97 375.688C40.2826 375.688 42.9681 367.894 42.9681 358.28C42.9681 348.666 40.2826 340.872 36.97 340.872C33.6573 340.872 30.9719 348.666 30.9719 358.28C30.9719 367.894 33.6573 375.688 36.97 375.688Z" fill="white"/>
<path d="M36.9701 376.206C33.3185 376.206 30.4583 368.334 30.4583 358.282C30.4583 348.231 33.3185 340.359 36.9701 340.359C40.6217 340.359 43.482 348.231 43.482 358.282C43.482 368.334 40.6217 376.206 36.9701 376.206ZM36.9701 341.39C34.3209 341.39 31.4858 348.178 31.4858 358.282C31.4858 368.386 34.3209 375.175 36.9701 375.175C39.6193 375.175 42.4544 368.386 42.4544 358.282C42.4544 348.178 39.6193 341.39 36.9701 341.39Z" fill="#101010"/>
<path d="M61.1023 341.263H52.6843C49.2437 341.263 46.4546 349.492 46.4546 359.608C46.4546 369.723 49.2437 377.957 52.6843 377.957H61.1023C64.5428 377.957 67.3297 369.725 67.3297 359.61C67.3297 349.494 64.5405 341.263 61.1023 341.263Z" fill="#101010"/>
<path d="M52.6842 377.628C56.1235 377.628 58.9117 369.428 58.9117 359.313C58.9117 349.198 56.1235 340.998 52.6842 340.998C49.2449 340.998 46.4568 349.198 46.4568 359.313C46.4568 369.428 49.2449 377.628 52.6842 377.628Z" fill="white"/>
<path d="M52.6843 378.145C48.9043 378.145 45.9431 369.873 45.9431 359.313C45.9431 348.754 48.9043 340.483 52.6843 340.483C56.4644 340.483 59.4279 348.754 59.4279 359.313C59.4279 369.873 56.4667 378.145 52.6843 378.145ZM52.6843 341.514C49.925 341.514 46.9707 348.666 46.9707 359.313C46.9707 369.96 49.925 377.115 52.6843 377.115C55.4437 377.115 58.4003 369.962 58.4003 359.313C58.4003 348.664 55.446 341.514 52.6843 341.514Z" fill="#101010"/>
<path d="M149.569 336.765H149.564L51.072 336.009C50.7875 336.009 50.5605 335.774 50.5628 335.489C50.5628 335.206 50.7944 334.978 51.0765 334.978H51.0811L149.057 335.733V209.962L1.02768 219.185V334.594L18.164 334.725C18.4484 334.725 18.6755 334.96 18.6732 335.245C18.6732 335.528 18.4416 335.756 18.1594 335.756H18.1549L0.507007 335.62C0.224881 335.62 -0.00219727 335.387 -0.00219727 335.104V218.699C-0.00219727 218.428 0.208825 218.202 0.479483 218.184L149.534 208.894C149.674 208.887 149.814 208.936 149.917 209.032C150.021 209.129 150.08 209.265 150.08 209.407V336.248C150.08 336.386 150.025 336.517 149.929 336.614C149.832 336.71 149.702 336.763 149.566 336.763L149.569 336.765Z" fill="#101010"/>
<path d="M215.667 324.464L221.69 329.889L223.864 370.376H257.878V324.575L215.667 324.464Z" fill="white"/>
<path d="M257.878 370.892H223.864C223.591 370.892 223.367 370.678 223.351 370.404L221.188 330.131L215.32 324.849C215.162 324.706 215.107 324.481 215.183 324.28C215.258 324.08 215.449 323.949 215.662 323.949L257.873 324.06C258.155 324.06 258.385 324.29 258.385 324.575V370.376C258.385 370.662 258.155 370.892 257.871 370.892H257.878ZM224.351 369.861H257.364V325.09L217.013 324.984L222.036 329.505C222.137 329.597 222.199 329.723 222.206 329.861L224.353 369.861H224.351Z" fill="#101010"/>
<path d="M255.518 335.479H242.824C237.638 335.479 233.432 347.879 233.432 363.132C233.432 378.385 237.636 390.792 242.824 390.792H255.518C260.704 390.792 264.911 378.387 264.911 363.134C264.911 347.882 260.706 335.479 255.518 335.479Z" fill="#101010"/>
<path d="M242.822 390.352C248.01 390.352 252.215 377.987 252.215 362.734C252.215 347.481 248.01 335.116 242.822 335.116C237.635 335.116 233.429 347.481 233.429 362.734C233.429 377.987 237.635 390.352 242.822 390.352Z" fill="white"/>
<path d="M242.822 390.865C237.269 390.865 232.916 378.509 232.916 362.732C232.916 346.955 237.267 334.598 242.822 334.598C248.377 334.598 252.729 346.955 252.729 362.732C252.729 378.509 248.377 390.865 242.822 390.865ZM242.822 335.631C238.01 335.631 233.945 348.043 233.945 362.734C233.945 377.425 238.012 389.837 242.822 389.837C247.632 389.837 251.699 377.425 251.699 362.734C251.699 348.043 247.632 335.631 242.822 335.631Z" fill="#101010"/>
<path d="M307.736 266.505H308.596C310.333 266.505 311.741 267.917 311.741 269.659V283.418C311.741 284.817 310.608 285.953 309.213 285.953H307.305C306.216 285.953 305.333 285.065 305.333 283.975V268.918C305.333 267.586 306.411 266.505 307.739 266.505H307.736Z" fill="#101010"/>
<path d="M336.11 329.475H323.416C318.23 329.475 314.023 341.875 314.023 357.128C314.023 372.38 318.228 384.787 323.416 384.787H336.11C341.296 384.787 345.502 372.382 345.502 357.13C345.502 341.877 341.298 329.473 336.11 329.473V329.475Z" fill="#101010"/>
<path d="M323.414 384.348C328.601 384.348 332.807 371.983 332.807 356.73C332.807 341.476 328.601 329.111 323.414 329.111C318.227 329.111 314.021 341.476 314.021 356.73C314.021 371.983 318.227 384.348 323.414 384.348Z" fill="white"/>
<path d="M323.414 384.861C317.858 384.861 313.507 372.504 313.507 356.727C313.507 340.95 317.858 328.594 323.414 328.594C328.969 328.594 333.32 340.95 333.32 356.727C333.32 372.504 328.969 384.861 323.414 384.861ZM323.414 329.627C318.602 329.627 314.535 342.038 314.535 356.73C314.535 371.421 318.602 383.832 323.414 383.832C328.226 383.832 332.291 371.421 332.291 356.73C332.291 342.038 328.224 329.627 323.414 329.627Z" fill="#101010"/>
<path d="M154.275 336.471L219.11 337.446L219.357 370.073H224.385C224.293 365.826 224.227 361.768 224.227 358.876C224.227 341.479 232.349 327.375 242.37 327.375C248.914 327.375 254.646 333.391 257.837 342.409C270.48 343.032 289.843 342.722 308.578 342.121C336.899 341.212 363.774 339.643 363.774 339.643C364.132 324.49 349.055 318.235 349.055 318.235C349.055 318.235 347.594 305.876 345.454 303.727C343.312 301.579 309.17 289.429 309.17 289.429L293.52 249.662C291.889 245.742 289.614 242.114 286.731 238.983C279.671 231.322 266.089 221.915 241.51 220.749C237.741 220.57 190.817 216.801 167.373 215.734C160.735 215.432 155.539 216.093 154.278 216.198V336.464L154.275 336.471Z" fill="white"/>
<path d="M357.59 324.163L356.576 324.982C354.79 326.424 353.668 328.532 353.464 330.823L353.23 333.48C353.081 335.157 354.457 336.572 356.131 336.469L363.552 336.009C362.808 330.883 360.301 326.983 357.59 324.165V324.163Z" fill="white"/>
<path d="M355.959 336.986C355.083 336.986 354.244 336.632 353.627 335.999C352.964 335.318 352.631 334.382 352.716 333.432L352.95 330.775C353.163 328.357 354.368 326.1 356.251 324.577L357.265 323.758C357.471 323.59 357.772 323.609 357.957 323.802C361.35 327.329 363.403 331.407 364.059 335.928C364.079 336.071 364.04 336.216 363.948 336.328C363.857 336.441 363.724 336.508 363.581 336.517L356.161 336.977C356.095 336.982 356.026 336.984 355.959 336.984V336.986ZM357.542 324.86L356.898 325.38C355.23 326.726 354.163 328.725 353.975 330.865L353.741 333.522C353.684 334.17 353.911 334.812 354.365 335.279C354.817 335.746 355.439 335.99 356.099 335.951L362.955 335.525C362.274 331.587 360.455 328.003 357.544 324.862L357.542 324.86Z" fill="#101010"/>
<path d="M293.043 305.618L236.244 289.434L223.298 248.066C221.676 242.882 218.988 238.084 215.311 234.094C206.863 224.927 189.073 213.256 154.275 216.205V336.471L218.843 337.163L219.357 369.649L224.383 370.379C224.291 366.132 224.227 361.77 224.227 358.881C224.227 341.484 232.349 327.379 242.37 327.379C248.914 327.379 254.646 333.395 257.837 342.413C270.48 343.037 289.843 342.726 308.578 342.126C310.399 342.068 314.021 341.942 314.021 341.942L301.718 313.261C300.119 309.534 296.933 306.73 293.043 305.621V305.618Z" fill="white"/>
<path d="M296.114 307.44C296.027 307.44 295.938 307.417 295.857 307.371C294.931 306.831 293.937 306.41 292.905 306.115L236.106 289.931C235.939 289.883 235.808 289.756 235.757 289.59L222.812 248.222C221.19 243.039 218.467 238.274 214.937 234.446C209.368 228.405 202.109 223.772 193.356 220.675C193.087 220.581 192.947 220.287 193.041 220.017C193.136 219.75 193.429 219.61 193.697 219.702C202.609 222.854 210.008 227.579 215.692 233.745C219.323 237.686 222.123 242.583 223.791 247.911L236.654 289.015L293.187 305.124C294.302 305.441 295.376 305.899 296.376 306.479C296.621 306.621 296.706 306.937 296.561 307.183C296.465 307.348 296.293 307.44 296.116 307.44H296.114Z" fill="#101010"/>
<path d="M224.383 370.892C224.383 370.892 224.362 370.892 224.353 370.892L219.327 370.588C219.057 370.572 218.846 370.349 218.843 370.077L218.6 337.067C218.6 336.972 218.623 336.88 218.671 336.8C220.094 334.382 233.099 313.093 251.389 310.141C260.644 308.646 270.009 309.803 279.23 313.578C291.272 318.508 303.112 327.938 314.42 341.61C314.544 341.762 314.574 341.972 314.494 342.151C314.413 342.33 314.239 342.448 314.044 342.455C312.239 342.517 310.425 342.579 308.601 342.636C285.836 343.366 268.75 343.462 257.816 342.924C257.607 342.912 257.426 342.779 257.357 342.581C254.1 333.381 248.501 327.89 242.375 327.89C232.654 327.89 224.745 341.79 224.745 358.874C224.745 361.604 224.803 365.9 224.901 370.363C224.903 370.508 224.846 370.646 224.743 370.745C224.647 370.837 224.518 370.889 224.387 370.889L224.383 370.892ZM219.869 369.587L223.858 369.827C223.768 365.561 223.715 361.501 223.715 358.876C223.715 341.222 232.085 326.859 242.372 326.859C248.877 326.859 254.781 332.479 258.206 341.912C269.126 342.432 286.063 342.328 308.564 341.608C310.035 341.56 311.498 341.511 312.957 341.461C293.247 317.956 272.592 307.765 251.554 311.16C234 313.992 221.351 334.313 219.633 337.203L219.871 369.587H219.869Z" fill="#101010"/>
<path d="M226.105 291.063H202.634C202.349 291.063 202.12 290.833 202.12 290.548V261.91C202.12 261.625 202.349 261.395 202.634 261.395H219.837C221.413 261.395 222.803 262.46 223.215 263.985C224.546 268.893 227.544 280.54 229.211 287.044C229.461 288.015 229.252 289.025 228.64 289.816C228.028 290.607 227.103 291.063 226.103 291.063H226.105ZM203.148 290.032H226.105C226.784 290.032 227.413 289.724 227.83 289.186C228.246 288.647 228.388 287.962 228.218 287.301C226.55 280.8 223.553 269.157 222.225 264.257C221.933 263.18 220.952 262.428 219.837 262.428H203.148V290.035V290.032Z" fill="#101010"/>
<path d="M348.996 323.128C349.269 319.686 349.055 316.222 348.344 312.844C347.567 309.145 346.335 305.045 344.938 303.732C343.968 302.821 343.36 302.496 340.959 301.466H307.663C305.135 301.466 302.759 302.685 301.28 304.742C299.275 307.53 298.672 311.091 299.644 314.386L303.275 326.687C303.91 328.84 305.883 330.319 308.124 330.319H343.206C346.154 330.319 348.603 328.049 348.837 325.102L348.993 323.128H348.996Z" fill="white"/>
<path d="M343.209 330.832H308.126C305.677 330.832 303.482 329.187 302.787 326.832L299.156 314.531C298.146 311.107 298.786 307.335 300.867 304.438C302.438 302.253 304.982 300.948 307.668 300.948H340.963C341.032 300.948 341.101 300.962 341.165 300.99C343.532 302.006 344.246 302.37 345.294 303.355C347.012 304.967 348.26 309.925 348.851 312.736C349.567 316.141 349.789 319.649 349.512 323.167L349.356 325.138C349.104 328.329 346.406 330.83 343.213 330.83L343.209 330.832ZM307.663 301.979C305.307 301.979 303.076 303.125 301.697 305.041C299.8 307.68 299.218 311.117 300.137 314.236L303.768 326.537C304.335 328.458 306.126 329.799 308.124 329.799H343.206C345.867 329.799 348.115 327.715 348.324 325.056L348.48 323.084C348.75 319.665 348.535 316.256 347.84 312.948C346.89 308.434 345.674 305.128 344.585 304.105C343.702 303.276 343.202 302.989 340.851 301.977H307.661L307.663 301.979Z" fill="#101010"/>
<path d="M202.244 260.061H207.045C208.781 260.061 210.189 261.473 210.189 263.215V276.974C210.189 278.373 209.056 279.509 207.662 279.509H201.813C200.723 279.509 199.84 278.621 199.84 277.531V262.474C199.84 261.142 200.918 260.061 202.246 260.061H202.244Z" fill="#101010"/>
<path d="M202.244 281.359H207.045C208.781 281.359 210.189 282.772 210.189 284.513V289.234C210.189 290.633 209.056 291.769 207.662 291.769H201.813C200.723 291.769 199.84 290.881 199.84 289.791V283.772C199.84 282.44 200.918 281.359 202.246 281.359H202.244Z" fill="#101010"/>
<path d="M272.317 374.241L353.315 370.429C357.675 370.225 361.221 366.831 361.632 362.472L363.774 339.646L257.836 342.411L262.965 366.981C263.883 371.377 267.846 374.453 272.319 374.244L272.317 374.241Z" fill="white"/>
<path d="M271.876 374.768C267.321 374.768 263.403 371.603 262.461 367.087L257.332 342.517C257.3 342.367 257.336 342.211 257.433 342.091C257.527 341.972 257.669 341.9 257.823 341.896L363.76 339.13C363.903 339.124 364.049 339.186 364.15 339.294C364.251 339.402 364.299 339.547 364.288 339.694L362.146 362.52C361.714 367.107 357.93 370.728 353.342 370.945L272.344 374.757C272.188 374.764 272.035 374.768 271.881 374.768H271.876ZM272.292 373.728L353.289 369.916C357.37 369.723 360.735 366.505 361.118 362.423L363.205 340.177L258.463 342.91L263.463 366.875C264.335 371.046 268.048 373.924 272.289 373.728H272.292Z" fill="#101010"/>
<path d="M299.433 288.875C299.401 288.875 299.367 288.875 299.335 288.875L244.068 287.253C241.838 287.187 239.916 285.701 239.287 283.552L232.422 260.102C232.142 259.15 232.335 258.158 232.948 257.381C233.56 256.603 234.471 256.194 235.466 256.238L288.758 257.411C291.034 257.461 293.022 258.874 293.82 261.011L302.516 284.263C302.947 285.296 302.826 286.485 302.181 287.426C301.557 288.339 300.536 288.875 299.438 288.875H299.433ZM235.315 257.266C234.693 257.266 234.133 257.537 233.753 258.02C233.349 258.533 233.223 259.187 233.406 259.81L240.271 283.26C240.774 284.978 242.311 286.168 244.095 286.221L299.362 287.842C300.153 287.882 300.883 287.49 301.328 286.842C301.773 286.193 301.858 285.369 301.553 284.642L292.85 261.372C292.199 259.631 290.582 258.481 288.728 258.439L235.423 257.266C235.386 257.266 235.347 257.264 235.31 257.264L235.315 257.266Z" fill="#101010"/>
<path d="M257.22 277.966H238.038C237.81 277.966 237.609 277.816 237.544 277.595L232.423 260.102C232.145 259.15 232.335 258.158 232.948 257.381C233.56 256.603 234.485 256.189 235.466 256.237L288.758 257.41C291.034 257.461 293.022 258.874 293.821 261.011L296.082 267.059C296.142 267.218 296.119 267.395 296.023 267.533C295.926 267.671 295.768 267.754 295.601 267.754H281.756C277.265 267.754 273.042 269.509 269.867 272.693C266.47 276.1 261.989 277.961 257.222 277.961L257.22 277.966ZM238.423 276.935H257.22C261.711 276.935 265.934 275.18 269.108 271.996C272.505 268.587 276.987 266.725 281.753 266.725H294.857L292.857 261.374C292.206 259.633 290.589 258.483 288.736 258.441L235.43 257.268C234.764 257.236 234.159 257.507 233.757 258.02C233.354 258.533 233.228 259.184 233.411 259.81L238.425 276.933L238.423 276.935Z" fill="#101010"/>
<path d="M299.433 288.875C299.401 288.875 299.367 288.875 299.335 288.875L244.068 287.253C241.838 287.187 239.916 285.701 239.287 283.552L232.422 260.102C232.142 259.15 232.335 258.158 232.948 257.381C233.56 256.603 234.471 256.194 235.466 256.238L288.758 257.411C291.034 257.461 293.022 258.874 293.82 261.011L302.516 284.263C302.947 285.296 302.826 286.485 302.181 287.426C301.557 288.339 300.536 288.875 299.438 288.875H299.433ZM235.315 257.266C234.693 257.266 234.133 257.537 233.753 258.02C233.349 258.533 233.223 259.187 233.406 259.81L240.271 283.26C240.774 284.978 242.311 286.168 244.095 286.221L299.362 287.842C300.153 287.882 300.883 287.49 301.328 286.842C301.773 286.193 301.858 285.369 301.553 284.642L292.85 261.372C292.199 259.631 290.582 258.481 288.728 258.439L235.423 257.266C235.386 257.266 235.347 257.264 235.31 257.264L235.315 257.266Z" fill="#101010"/>
<path d="M300.756 335.433L291.717 329.618C287.847 327.128 283.349 325.806 278.753 325.806H276.542C273.372 325.806 270.801 328.382 270.801 331.564V331.684C270.801 335.16 273.61 337.978 277.076 337.978H300.013C301.387 337.978 301.912 336.181 300.756 335.436V335.433Z" fill="white"/>
<path d="M300.013 338.491H277.076C273.333 338.491 270.287 335.436 270.287 331.681V331.562C270.287 328.104 273.092 325.288 276.54 325.288H278.751C283.455 325.288 288.033 326.634 291.992 329.181L301.032 334.996C301.757 335.463 302.066 336.299 301.825 337.127C301.585 337.955 300.871 338.489 300.011 338.489L300.013 338.491ZM276.542 326.321C273.661 326.321 271.317 328.672 271.317 331.562V331.681C271.317 334.868 273.902 337.46 277.079 337.46H300.016C300.493 337.46 300.757 337.138 300.844 336.839C300.931 336.538 300.883 336.126 300.481 335.868L291.442 330.053C287.648 327.612 283.262 326.321 278.755 326.321H276.544H276.542Z" fill="#101010"/>
<path d="M224.387 370.588H219.36C219.077 370.588 218.848 370.36 218.846 370.077L218.603 337.955L154.271 336.986C153.989 336.982 153.764 336.752 153.764 336.471V216.205C153.764 215.938 153.968 215.715 154.234 215.692C154.39 215.679 154.606 215.658 154.879 215.63C156.874 215.43 161.551 214.958 167.398 215.225C184.3 215.996 213.862 218.202 229.743 219.389C235.982 219.856 240.492 220.192 241.538 220.24C266.271 221.414 279.973 230.894 287.111 238.64C289.992 241.767 292.311 245.411 293.997 249.469L309.567 289.027C313.92 290.593 343.241 301.197 345.317 303.373C348.734 306.96 349.445 316.042 349.558 317.896C351.707 318.899 364.627 325.53 364.293 339.657C364.286 339.926 364.075 340.145 363.809 340.159C363.54 340.175 336.605 341.739 308.601 342.636C285.836 343.366 268.75 343.462 257.816 342.924C257.607 342.913 257.426 342.779 257.357 342.581C254.1 333.381 248.501 327.89 242.375 327.89C232.654 327.89 224.745 341.79 224.745 358.874C224.745 361.446 224.798 365.209 224.903 370.059C224.906 370.197 224.853 370.33 224.757 370.429C224.66 370.528 224.527 370.583 224.39 370.583L224.387 370.588ZM219.869 369.557H223.862C223.764 364.954 223.713 361.361 223.713 358.876C223.713 341.222 232.083 326.859 242.37 326.859C248.875 326.859 254.779 332.48 258.204 341.912C269.124 342.432 286.061 342.328 308.562 341.608C334.504 340.775 359.526 339.374 363.265 339.16C363.288 324.869 349.005 318.775 348.858 318.715C348.672 318.639 348.551 318.462 348.542 318.262C348.537 318.156 348.037 307.728 344.569 304.089C343.094 302.543 322.487 294.769 308.996 289.919C308.856 289.869 308.746 289.761 308.691 289.623L293.041 249.855C291.403 245.917 289.15 242.376 286.352 239.337C279.343 231.734 265.869 222.426 241.485 221.269C240.425 221.218 235.911 220.882 229.663 220.415C213.786 219.231 184.236 217.022 167.35 216.254C161.579 215.991 156.954 216.456 154.98 216.654C154.913 216.661 154.851 216.665 154.791 216.672V335.963L219.119 336.931C219.399 336.936 219.623 337.163 219.626 337.442L219.869 369.557Z" fill="#101010"/>
<path d="M308.537 309.697C308.257 309.697 308.028 309.472 308.023 309.191C308.019 308.906 308.243 308.671 308.528 308.667L339.089 308.151H339.099C339.378 308.151 339.608 308.377 339.612 308.657C339.617 308.943 339.39 309.177 339.108 309.182L308.546 309.697H308.537Z" fill="#101010"/>
<path d="M308.537 316.406C308.257 316.406 308.028 316.18 308.023 315.897C308.019 315.612 308.246 315.377 308.53 315.373L342.172 314.857H342.179C342.459 314.857 342.688 315.083 342.693 315.366C342.697 315.651 342.47 315.886 342.186 315.89L308.544 316.406H308.537Z" fill="#101010"/>
<path d="M315.209 323.114C314.929 323.114 314.702 322.891 314.695 322.61C314.689 322.325 314.916 322.09 315.198 322.083L339.087 321.568H339.098C339.378 321.568 339.605 321.791 339.612 322.072C339.619 322.357 339.392 322.592 339.11 322.599L315.221 323.114H315.209Z" fill="#101010"/>
<path d="M185.972 326.321H167.125C166.84 326.321 166.611 326.091 166.611 325.806V304.592C166.611 304.307 166.84 304.077 167.125 304.077H185.972C186.257 304.077 186.486 304.307 186.486 304.592V325.806C186.486 326.091 186.257 326.321 185.972 326.321ZM167.639 325.29H185.459V305.11H167.639V325.29Z" fill="#101010"/>
</g>
<defs>
<clipPath id="clip0_1_3062">
<rect width="422" height="421" fill="white"/>
</clipPath>
</defs>
</svg>
